<svg width="13" height="12" viewBox="0 0 13 12" fill="none" xmlns="http://www.w3.org/2000/svg">
<path d="M1.71993 3.24901C1.7856 3.24894 1.85063 3.26185 1.9113 3.28699C1.97196 3.31213 2.02706 3.34901 2.07343 3.39551L6.21993 7.54351L10.3664 3.39551C10.4126 3.34776 10.4677 3.30967 10.5287 3.28346C10.5897 3.25726 10.6553 3.24346 10.7217 3.24289C10.7881 3.24231 10.854 3.25496 10.9154 3.2801C10.9769 3.30524 11.0327 3.34237 11.0796 3.38931C11.1266 3.43626 11.1637 3.49209 11.1888 3.55353C11.214 3.61498 11.2266 3.68082 11.2261 3.74721C11.2255 3.8136 11.2117 3.87921 11.1855 3.94021C11.1593 4.00122 11.1212 4.05639 11.0734 4.10251L6.57343 8.60451C6.47784 8.69474 6.35137 8.745 6.21993 8.745C6.08849 8.745 5.96202 8.69474 5.86643 8.60451L1.36643 4.10251C1.29653 4.03259 1.24892 3.9435 1.22964 3.84653C1.21035 3.74955 1.22026 3.64903 1.25809 3.55768C1.29593 3.46633 1.36 3.38825 1.4422 3.33331C1.52441 3.27837 1.62105 3.24903 1.71993 3.24901Z" fill="#737373"/>
</svg>
