<svg width="10" height="10" viewBox="0 0 10 10" fill="none" xmlns="http://www.w3.org/2000/svg">
<path d="M4.16671 7.5C4.90628 7.49985 5.62454 7.25226 6.20712 6.79667L8.03879 8.62833L8.62796 8.03917L6.79629 6.2075C7.25212 5.62486 7.49986 4.90643 7.50004 4.16667C7.50004 2.32875 6.00462 0.833336 4.16671 0.833336C2.32879 0.833336 0.833374 2.32875 0.833374 4.16667C0.833374 6.00458 2.32879 7.5 4.16671 7.5ZM4.16671 1.66667C5.54546 1.66667 6.66671 2.78792 6.66671 4.16667C6.66671 5.54542 5.54546 6.66667 4.16671 6.66667C2.78796 6.66667 1.66671 5.54542 1.66671 4.16667C1.66671 2.78792 2.78796 1.66667 4.16671 1.66667Z" fill="#8E8E8E"/>
</svg>
